<svg width="20" height="20" viewBox="0 0 20 20" fill="none" xmlns="http://www.w3.org/2000/svg">
<path fill-rule="evenodd" clip-rule="evenodd" d="M5.09675 5.09678C5.50355 4.68999 6.1631 4.68999 6.56989 5.09678L9.99999 8.52688L13.4301 5.09678C13.8369 4.68999 14.4964 4.68999 14.9032 5.09678C15.31 5.50358 15.31 6.16313 14.9032 6.56992L11.4731 10L14.9032 13.4301C15.31 13.8369 15.31 14.4965 14.9032 14.9033C14.4964 15.3101 13.8369 15.3101 13.4301 14.9033L9.99999 11.4732L6.56989 14.9033C6.1631 15.3101 5.50355 15.3101 5.09675 14.9033C4.68996 14.4965 4.68996 13.8369 5.09675 13.4301L8.52685 10L5.09675 6.56992C4.68996 6.16313 4.68996 5.50358 5.09675 5.09678Z" fill="#FF442F"/>
</svg>
